<svg xmlns="http://www.w3.org/2000/svg" version="1.0" width="512.000000pt" height="512.000000pt" viewBox="0 0 512.000000 512.000000" preserveAspectRatio="xMidYMid meet">

<g transform="translate(0.000000,512.000000) scale(0.100000,-0.100000)" fill="#eaccb3" stroke="none">
<path d="M340 5109 c-160 -31 -299 -173 -330 -339 -14 -73 -14 -4347 0 -4420 32 -170 170 -308 339 -340 74 -14 2129 -14 2202 0 164 31 292 151 335 315 11 41 14 442 14 2235 0 1793 -3 2194 -14 2235 -43 164 -171 284 -335 315 -67 13 -2146 12 -2211 -1z m2224 -179 c64 -25 125 -85 150 -151 15 -41 16 -204 14 -2234 l-3 -2190 -22 -40 c-25 -47 -74 -95 -123 -121 -33 -18 -84 -19 -1109 -22 -1205 -3 -1134 -7 -1217 70 -28 26 -50 59 -64 94 -20 54 -20 66 -20 2218 0 2425 -6 2229 73 2313 29 30 60 51 97 63 53 19 101 19 1112 20 1040 0 1058 0 1112 -20z" fill="#eaccb3"/>
<path d="M455 4665 l-25 -24 0 -631 0 -631 25 -24 24 -25 971 0 971 0 24 25 25 24 0 635 0 635 -26 20 c-27 21 -31 21 -996 21 l-969 0 -24 -25z m1845 -655 l0 -510 -850 0 -850 0 0 510 0 510 850 0 850 0 0 -510z" fill="#eaccb3"/>
<path d="M940 3755 l0 -85 85 0 85 0 0 85 0 85 -85 0 -85 0 0 -85z" fill="#eaccb3"/>
<path d="M1280 3755 l0 -85 85 0 85 0 0 85 0 85 -85 0 -85 0 0 -85z" fill="#eaccb3"/>
<path d="M1620 3755 l0 -85 85 0 85 0 0 85 0 85 -85 0 -85 0 0 -85z" fill="#eaccb3"/>
<path d="M1960 3755 l0 -85 85 0 85 0 0 85 0 85 -85 0 -85 0 0 -85z" fill="#eaccb3"/>
<path d="M430 3075 l0 -85 125 0 125 0 0 85 0 85 -125 0 -125 0 0 -85z" fill="#eaccb3"/>
<path d="M2220 3075 l0 -85 125 0 125 0 0 85 0 85 -125 0 -125 0 0 -85z" fill="#eaccb3"/>
<path d="M1315 3069 c-402 -54 -738 -340 -849 -722 -61 -209 -59 -395 5 -602 78 -255 282 -493 525 -614 589 -293 1288 24 1450 658 130 505 -146 1031 -640 1221 -143 55 -343 79 -491 59z m335 -192 c64 -18 158 -53 180 -67 12 -8 -102 -126 -559 -584 l-575 -575 -28 63 c-51 117 -63 178 -63 336 0 171 19 251 91 389 122 235 350 405 606 451 74 13 282 5 348 -13z m416 -249 c10 -18 13 -41 9 -57 -7 -29 -1081 -1112 -1127 -1137 -38 -20 -63 -18 -94 10 -21 18 -28 32 -28 60 0 35 23 60 564 601 310 310 573 566 585 567 35 6 75 -13 91 -44z m205 -350 c30 -105 37 -288 14 -399 -102 -505 -634 -806 -1119 -632 -39 14 -79 30 -90 35 -16 9 54 83 555 584 l574 574 22 -44 c12 -24 32 -77 44 -118z" fill="#eaccb3"/>
<path d="M445 752 c-48 -23 -69 -45 -90 -95 -20 -49 -19 -82 6 -134 31 -63 92 -97 165 -91 90 8 144 62 152 152 3 43 0 62 -17 93 -45 78 -139 111 -216 75z" fill="#eaccb3"/>
<path d="M1045 751 c-95 -44 -131 -141 -85 -231 27 -53 72 -83 135 -88 192 -16 257 239 80 319 -51 23 -80 23 -130 0z" fill="#eaccb3"/>
<path d="M1659 760 c-73 -22 -119 -87 -119 -167 0 -89 62 -153 154 -161 188 -15 254 241 82 319 -43 20 -75 22 -117 9z" fill="#eaccb3"/>
<path d="M2231 748 c-53 -27 -79 -60 -91 -114 -12 -51 3 -105 40 -148 40 -45 79 -60 141 -54 118 12 185 135 132 245 -37 79 -143 113 -222 71z" fill="#eaccb3"/>
<path d="M3580 4780 l0 -340 -24 -10 c-36 -13 -49 -39 -100 -197 l-46 -142 0 -210 0 -211 -85 0 -85 0 0 -85 0 -85 85 0 85 0 2 -1086 3 -1086 28 -24 c22 -19 39 -24 83 -24 l54 0 0 -188 0 -189 -26 -24 c-25 -24 -28 -24 -255 -27 l-229 -3 0 -85 0 -86 243 4 c270 3 296 9 366 79 65 64 71 90 71 317 l0 202 56 0 c30 0 64 5 76 11 49 26 48 3 48 1144 l0 1065 85 0 85 0 0 85 0 85 -85 0 -85 0 0 211 0 211 -50 152 c-50 152 -64 177 -107 190 l-23 7 0 340 0 339 -85 0 -85 0 0 -340z m142 -600 c27 -82 28 -90 28 -297 l0 -213 -85 0 -85 0 0 198 c0 207 2 222 65 390 3 7 15 12 27 10 17 -2 27 -19 50 -88z m28 -1705 l0 -1025 -85 0 -85 0 0 1025 0 1025 85 0 85 0 0 -1025z" fill="#eaccb3"/>
<path d="M4610 4781 l0 -339 -30 -12 c-38 -16 -43 -24 -96 -184 l-44 -130 0 -223 0 -223 -85 0 -85 0 0 -85 0 -85 85 0 85 0 0 -1082 c1 -836 3 -1087 13 -1099 21 -27 54 -39 106 -39 l51 0 0 -310 c0 -257 -3 -317 -15 -347 -21 -50 -42 -72 -90 -94 -38 -17 -82 -19 -737 -19 l-698 0 0 -85 0 -86 723 3 722 3 67 33 c77 38 130 92 167 171 l26 56 3 338 3 337 55 0 c48 0 60 4 85 29 l29 29 0 1081 0 1081 85 0 85 0 0 85 0 85 -85 0 -85 0 0 217 0 218 -46 140 c-48 144 -63 171 -101 186 l-23 9 0 340 0 340 -85 0 -85 0 0 -339z m138 -609 c32 -97 32 -100 32 -300 l0 -202 -85 0 -85 0 0 207 c0 206 0 209 31 300 26 80 34 93 53 93 19 0 26 -13 54 -98z m32 -1697 l0 -1025 -85 0 -85 0 0 1025 0 1025 85 0 85 0 0 -1025z" fill="#eaccb3"/>
</g>
</svg>