<?xml version="1.0" encoding="UTF-8"?>
<svg xmlns="http://www.w3.org/2000/svg" xmlns:xlink="http://www.w3.org/1999/xlink" width="36px" height="36px" viewBox="0 0 36 36" version="1.1">
<g id="surface1">
<path style=" stroke:none;fill-rule:nonzero;fill:rgb(91.764706%,80%,70.196078%);fill-opacity:1;" d="M 16.699219 0.0429688 C 12.929688 0.429688 10.0625 1.539062 7.101562 3.753906 C 6.242188 4.394531 4.394531 6.242188 3.753906 7.101562 C 1.757812 9.773438 0.660156 12.359375 0.160156 15.609375 C 0.015625 16.609375 -0.0078125 19.1875 0.125 20.144531 C 0.546875 23.082031 1.492188 25.574219 3.058594 27.914062 C 5.660156 31.78125 9.660156 34.550781 14.0625 35.542969 C 15.523438 35.875 16.328125 35.957031 17.964844 35.957031 C 20.40625 35.964844 22.316406 35.605469 24.46875 34.753906 C 27.898438 33.398438 30.859375 31.007812 32.941406 27.914062 C 34.488281 25.601562 35.394531 23.257812 35.839844 20.390625 C 36.007812 19.265625 36.007812 16.734375 35.839844 15.609375 C 35.332031 12.355469 34.242188 9.765625 32.246094 7.101562 C 31.597656 6.238281 29.75 4.386719 28.898438 3.753906 C 26.242188 1.773438 23.539062 0.625 20.433594 0.167969 C 19.742188 0.0703125 17.269531 -0.015625 16.699219 0.0429688 Z M 19.449219 2.1875 C 25.972656 2.820312 31.5625 7.539062 33.3125 13.886719 C 34.683594 18.863281 33.488281 24.179688 30.078125 28.214844 L 29.917969 28.414062 L 27.210938 25.699219 L 24.503906 22.992188 L 26.347656 21.148438 C 27.863281 19.617188 28.195312 19.25 28.257812 19.019531 C 28.378906 18.570312 28.25 18.253906 27.730469 17.71875 L 27.289062 17.253906 L 28.554688 15.996094 C 29.9375 14.617188 30.234375 14.246094 30.234375 13.859375 C 30.234375 13.105469 29.488281 12.601562 28.777344 12.875 C 28.671875 12.917969 27.949219 13.578125 27.175781 14.351562 L 25.769531 15.75 L 21.304688 11.285156 L 22.675781 9.914062 C 23.429688 9.160156 24.097656 8.445312 24.152344 8.324219 C 24.484375 7.621094 23.976562 6.820312 23.195312 6.820312 C 22.808594 6.820312 22.4375 7.117188 21.066406 8.492188 L 19.800781 9.765625 L 19.328125 9.316406 C 18.78125 8.804688 18.476562 8.675781 18.035156 8.796875 C 17.804688 8.859375 17.457031 9.167969 15.90625 10.707031 L 14.0625 12.550781 L 7.585938 6.074219 L 8.171875 5.617188 C 11.46875 3.015625 15.46875 1.800781 19.449219 2.1875 Z M 12.585938 14.476562 C 12.515625 14.617188 12.390625 14.96875 12.296875 15.257812 C 12.121094 15.8125 12.109375 16.277344 12.171875 18.210938 L 12.199219 19.019531 L 11.945312 19.546875 C 11.804688 19.835938 11.371094 20.609375 10.976562 21.261719 C 10.363281 22.289062 10.265625 22.492188 10.265625 22.761719 C 10.265625 23.160156 10.335938 23.289062 10.847656 23.816406 L 11.277344 24.257812 L 10.074219 25.46875 C 9.054688 26.5 8.859375 26.734375 8.789062 26.992188 C 8.585938 27.765625 9.300781 28.46875 10.089844 28.257812 C 10.316406 28.195312 10.601562 27.949219 11.585938 26.980469 L 12.796875 25.777344 L 13.238281 26.207031 C 13.765625 26.71875 13.894531 26.789062 14.292969 26.789062 C 14.5625 26.789062 14.765625 26.691406 15.792969 26.078125 C 16.445312 25.683594 17.21875 25.25 17.507812 25.109375 C 18.089844 24.828125 17.851562 24.847656 20.25 24.90625 C 21.164062 24.925781 21.324219 24.910156 21.796875 24.757812 C 22.085938 24.671875 22.4375 24.539062 22.578125 24.46875 L 22.824219 24.335938 L 28.414062 29.925781 L 27.96875 30.285156 C 24.917969 32.75 21.144531 34.03125 17.417969 33.863281 C 13.386719 33.679688 9.6875 32.046875 6.820312 29.179688 C 2.582031 24.941406 1.070312 18.824219 2.875 13.246094 C 3.507812 11.304688 4.410156 9.652344 5.714844 8.03125 L 6.074219 7.585938 L 12.71875 14.230469 Z M 22.042969 15.046875 L 25.769531 18.773438 L 23.027344 21.515625 L 15.539062 14.027344 L 16.890625 12.675781 C 17.632812 11.933594 18.261719 11.320312 18.28125 11.320312 C 18.300781 11.320312 19.996094 12.992188 22.042969 15.046875 Z M 17.789062 19.300781 C 19.660156 21.171875 21.171875 22.730469 21.136719 22.761719 C 21.066406 22.832031 20.003906 22.824219 19.039062 22.753906 L 18.296875 22.691406 L 14.359375 18.738281 L 14.316406 18.105469 C 14.292969 17.753906 14.257812 17.261719 14.230469 17.007812 C 14.183594 16.53125 14.238281 15.890625 14.328125 15.890625 C 14.359375 15.890625 15.910156 17.421875 17.789062 19.300781 Z M 14.828125 22.246094 L 16.046875 23.464844 L 15.273438 23.933594 C 14.851562 24.1875 14.46875 24.398438 14.441406 24.398438 C 14.363281 24.398438 12.65625 22.695312 12.65625 22.621094 C 12.65625 22.5625 13.5625 21.023438 13.589844 21.023438 C 13.597656 21.023438 14.152344 21.570312 14.828125 22.246094 Z M 14.828125 22.246094 "/>
</g>
</svg>
