<?xml version="1.0" encoding="UTF-8"?>
<svg xmlns="http://www.w3.org/2000/svg" xmlns:xlink="http://www.w3.org/1999/xlink" width="50px" height="50px" viewBox="0 0 50 50" version="1.1">
<g id="surface1">
<path style=" stroke:none;fill-rule:nonzero;fill:rgb(91.764706%,80%,70.196078%);fill-opacity:1;" d="M 23.828125 0.0585938 C 22.078125 0.28125 20.546875 0.742188 19.121094 1.484375 C 15.515625 3.328125 12.976562 6.648438 12.089844 10.695312 C 11.933594 11.398438 11.882812 12.070312 11.84375 14.132812 L 11.796875 16.679688 L 11.554688 16.75 C 11.164062 16.84375 10.867188 17.078125 10.703125 17.429688 C 10.578125 17.695312 10.546875 18.171875 10.546875 20.234375 C 10.546875 22.9375 10.566406 23.039062 11.125 23.40625 C 11.4375 23.625 11.542969 23.632812 13.171875 23.632812 L 14.890625 23.632812 L 15.164062 24.40625 C 15.578125 25.566406 16.335938 26.765625 17.304688 27.773438 L 18.164062 28.664062 L 18.164062 29.929688 C 18.164062 31.59375 18.015625 32.921875 17.773438 33.46875 C 17.53125 34.015625 17.078125 34.226562 15.476562 34.53125 C 14.835938 34.648438 13.476562 34.914062 12.460938 35.109375 C 10.390625 35.507812 9.226562 35.859375 8 36.476562 C 6.75 37.089844 5.828125 37.734375 4.875 38.671875 C 2.53125 40.976562 1.179688 43.875 0.789062 47.480469 C 0.625 48.964844 0.644531 49.570312 0.878906 49.804688 C 1.074219 50 1.203125 50 25 50 C 48.796875 50 48.925781 50 49.121094 49.804688 C 49.355469 49.570312 49.375 48.964844 49.210938 47.480469 C 48.820312 43.886719 47.46875 40.984375 45.125 38.671875 C 44.1875 37.753906 43.273438 37.101562 42 36.464844 C 40.773438 35.851562 39.601562 35.5 37.273438 35.058594 C 36.132812 34.84375 34.746094 34.570312 34.199219 34.460938 C 32.882812 34.210938 32.460938 33.992188 32.21875 33.457031 C 31.984375 32.929688 31.835938 31.582031 31.835938 29.980469 L 31.835938 28.757812 L 32.234375 28.46875 C 32.460938 28.300781 32.78125 28.007812 32.96875 27.804688 L 33.300781 27.441406 L 34.394531 27.441406 C 35 27.441406 35.664062 27.390625 35.859375 27.34375 C 36.476562 27.167969 37.117188 26.660156 37.441406 26.074219 C 37.703125 25.605469 37.742188 25.429688 37.773438 24.589844 L 37.8125 23.632812 L 38.183594 23.632812 C 38.601562 23.632812 39.140625 23.3125 39.328125 22.949219 C 39.414062 22.773438 39.453125 22.011719 39.453125 20.234375 C 39.453125 17.507812 39.40625 17.246094 38.867188 16.921875 L 38.59375 16.765625 L 38.546875 14.171875 C 38.496094 11.367188 38.429688 10.867188 37.882812 9.199219 C 36.414062 4.746094 32.53125 1.28125 27.882812 0.28125 C 27.023438 0.0976562 24.589844 -0.0390625 23.828125 0.0585938 Z M 26.984375 1.320312 C 31.503906 2 35.304688 5.214844 36.765625 9.601562 C 37.265625 11.074219 37.402344 12.1875 37.402344 14.617188 L 37.402344 16.699219 L 35.761719 16.699219 L 35.722656 13.984375 C 35.683594 11.464844 35.664062 11.210938 35.429688 10.351562 C 34.394531 6.492188 31.28125 3.703125 27.375 3.125 C 26.453125 3 23.859375 3 22.890625 3.132812 C 21.414062 3.339844 19.804688 3.976562 18.601562 4.835938 C 17.929688 5.3125 16.679688 6.582031 16.242188 7.226562 C 15.46875 8.367188 14.84375 9.992188 14.65625 11.367188 C 14.601562 11.777344 14.550781 13.15625 14.550781 14.414062 L 14.550781 16.699219 L 12.96875 16.699219 L 13.015625 14.179688 C 13.054688 12.335938 13.105469 11.476562 13.234375 10.9375 C 13.78125 8.476562 14.8125 6.582031 16.554688 4.824219 C 19.34375 2 23.117188 0.734375 26.984375 1.320312 Z M 28.25 4.433594 C 29.851562 4.914062 31.023438 5.632812 32.1875 6.867188 C 33.796875 8.554688 34.570312 10.605469 34.570312 13.210938 L 34.570312 14.289062 L 33.671875 14.21875 C 32.507812 14.132812 31.523438 13.90625 30.90625 13.601562 C 30.320312 13.320312 29.648438 12.6875 29.382812 12.1875 C 29.109375 11.660156 28.90625 10.695312 28.90625 9.921875 C 28.90625 9.148438 28.75 8.886719 28.320312 8.886719 C 27.929688 8.886719 27.765625 9.148438 27.703125 9.875 C 27.609375 10.929688 27.304688 11.570312 26.570312 12.304688 C 25.390625 13.476562 23.75 14.023438 20.683594 14.257812 C 19.277344 14.367188 17.1875 14.382812 16.308594 14.289062 L 15.695312 14.226562 L 15.75 12.804688 C 15.8125 11.09375 16.015625 10.203125 16.648438 8.925781 C 17.625 6.933594 19.160156 5.515625 21.210938 4.695312 C 22.421875 4.210938 23.222656 4.101562 25.4375 4.140625 C 27.21875 4.171875 27.46875 4.199219 28.25 4.433594 Z M 28.546875 12.976562 C 29.421875 14.382812 30.890625 15.097656 33.429688 15.351562 L 34.589844 15.46875 L 34.539062 18.9375 C 34.5 22.148438 34.484375 22.46875 34.289062 23.144531 C 34.03125 24.015625 33.445312 25.273438 33.015625 25.859375 L 32.714844 26.269531 L 27.492188 26.269531 L 27.207031 25.917969 C 26.804688 25.410156 26.445312 25.292969 25.265625 25.292969 C 24.375 25.292969 24.210938 25.320312 23.925781 25.507812 C 23.445312 25.839844 23.222656 26.203125 23.171875 26.726562 C 23.117188 27.273438 23.367188 27.726562 23.914062 28.09375 C 24.210938 28.289062 24.367188 28.320312 25.265625 28.320312 C 26.414062 28.320312 26.789062 28.210938 27.167969 27.742188 L 27.429688 27.441406 L 29.511719 27.460938 L 31.59375 27.492188 L 30.957031 27.9375 C 30.109375 28.546875 29.289062 28.945312 28.25 29.265625 C 27.429688 29.523438 27.304688 29.53125 25.195312 29.53125 C 23.195312 29.539062 22.921875 29.523438 22.167969 29.316406 C 21.054688 29.015625 20.109375 28.546875 19.148438 27.820312 C 17.558594 26.621094 16.554688 25.136719 15.996094 23.144531 C 15.800781 22.46875 15.78125 22.117188 15.742188 18.945312 L 15.703125 15.46875 L 18.476562 15.476562 C 22.179688 15.476562 23.992188 15.195312 25.734375 14.355469 C 26.570312 13.945312 27.703125 13.078125 27.921875 12.65625 C 28 12.519531 28.085938 12.402344 28.125 12.402344 C 28.164062 12.402344 28.351562 12.65625 28.546875 12.976562 Z M 14.550781 19.796875 C 14.550781 20.859375 14.578125 21.894531 14.609375 22.089844 L 14.679688 22.460938 L 11.71875 22.460938 L 11.71875 17.871094 L 14.550781 17.871094 Z M 38.28125 20.164062 L 38.28125 22.460938 L 35.617188 22.460938 L 35.683594 22.089844 C 35.710938 21.894531 35.742188 20.859375 35.742188 19.796875 L 35.742188 17.871094 L 38.28125 17.871094 Z M 36.609375 24.453125 C 36.570312 25.359375 36.4375 25.644531 35.839844 26.046875 C 35.585938 26.21875 35.382812 26.269531 34.863281 26.269531 L 34.21875 26.269531 L 34.6875 25.34375 C 34.941406 24.835938 35.203125 24.238281 35.265625 24.023438 L 35.382812 23.632812 L 36.640625 23.632812 Z M 26.28125 26.621094 C 26.367188 26.726562 26.375 26.816406 26.296875 26.933594 C 26.21875 27.070312 26.035156 27.101562 25.28125 27.101562 C 24.484375 27.101562 24.367188 27.078125 24.335938 26.921875 C 24.265625 26.570312 24.492188 26.464844 25.34375 26.464844 C 25.957031 26.464844 26.179688 26.503906 26.28125 26.621094 Z M 21.835938 30.4375 C 22.753906 30.695312 22.921875 30.703125 25.097656 30.703125 C 27.695312 30.710938 28.417969 30.59375 29.851562 29.929688 C 30.265625 29.746094 30.605469 29.589844 30.625 29.589844 C 30.644531 29.589844 30.664062 30.070312 30.664062 30.644531 L 30.664062 31.699219 L 27.832031 33.523438 L 25.007812 35.351562 L 22.167969 33.523438 L 19.335938 31.699219 L 19.335938 29.433594 L 20.109375 29.804688 C 20.527344 30.007812 21.308594 30.304688 21.835938 30.4375 Z M 21.679688 34.617188 L 24.121094 36.21875 L 22.890625 37.890625 C 22.207031 38.808594 21.609375 39.539062 21.5625 39.53125 C 21.503906 39.511719 20.703125 38.46875 19.773438 37.207031 L 18.085938 34.921875 L 18.445312 34.5 C 18.664062 34.265625 18.898438 33.859375 18.984375 33.546875 C 19.082031 33.25 19.179688 33.007812 19.199219 33.007812 C 19.21875 33.007812 20.332031 33.730469 21.679688 34.617188 Z M 31.015625 33.546875 C 31.101562 33.859375 31.335938 34.265625 31.554688 34.5 L 31.914062 34.921875 L 30.226562 37.207031 C 29.296875 38.46875 28.496094 39.511719 28.4375 39.53125 C 28.390625 39.539062 27.792969 38.808594 27.109375 37.890625 L 25.878906 36.230469 L 28.300781 34.628906 C 29.628906 33.742188 30.742188 33.015625 30.78125 33.015625 C 30.8125 33.007812 30.917969 33.25 31.015625 33.546875 Z M 19.042969 38.234375 C 20.148438 39.734375 21.171875 41.035156 21.308594 41.113281 C 21.515625 41.21875 21.609375 41.230469 21.816406 41.132812 C 21.972656 41.0625 22.664062 40.226562 23.515625 39.0625 C 24.304688 38 24.96875 37.117188 25 37.117188 C 25.03125 37.117188 25.695312 38 26.484375 39.070312 C 28.015625 41.140625 28.25 41.359375 28.691406 41.113281 C 28.828125 41.035156 29.824219 39.773438 30.898438 38.3125 C 31.984375 36.84375 32.910156 35.605469 32.96875 35.546875 C 33.054688 35.460938 33.195312 35.46875 33.515625 35.566406 L 33.953125 35.695312 L 32.609375 42.234375 C 31.867188 45.839844 31.25 48.789062 31.25 48.796875 C 31.25 48.820312 30.398438 48.828125 29.367188 48.828125 L 27.480469 48.828125 L 27.21875 46.386719 L 26.953125 43.945312 L 27.539062 43.203125 C 27.871094 42.773438 28.125 42.351562 28.125 42.226562 C 28.125 42.039062 27.832031 41.796875 26.640625 40.96875 C 25.828125 40.398438 25.085938 39.941406 25.007812 39.941406 C 24.921875 39.941406 24.179688 40.410156 23.359375 40.976562 C 22.179688 41.796875 21.875 42.050781 21.875 42.226562 C 21.875 42.351562 22.128906 42.78125 22.460938 43.203125 L 23.046875 43.945312 L 22.78125 46.386719 L 22.519531 48.828125 L 20.632812 48.828125 C 19.601562 48.828125 18.75 48.820312 18.75 48.796875 C 18.75 48.789062 18.132812 45.839844 17.390625 42.234375 L 16.046875 35.695312 L 16.398438 35.578125 C 16.59375 35.515625 16.804688 35.46875 16.882812 35.476562 C 16.960938 35.488281 17.929688 36.726562 19.042969 38.234375 Z M 16.191406 42.285156 C 16.90625 45.75 17.480469 48.640625 17.480469 48.703125 C 17.480469 48.796875 16.621094 48.828125 13.523438 48.828125 L 9.570312 48.828125 L 9.570312 45.117188 C 9.570312 41.53125 9.5625 41.398438 9.375 41.210938 C 9.132812 40.96875 8.835938 40.96875 8.59375 41.210938 C 8.40625 41.398438 8.398438 41.53125 8.398438 45.117188 L 8.398438 48.828125 L 1.835938 48.828125 L 1.90625 47.96875 C 2.039062 46.25 2.492188 44.421875 3.15625 42.9375 C 3.820312 41.453125 5.242188 39.726562 6.6875 38.640625 C 7.675781 37.898438 9.511719 37.011719 10.839844 36.621094 C 11.875 36.328125 14.746094 35.828125 14.851562 35.929688 C 14.882812 35.957031 15.488281 38.820312 16.191406 42.285156 Z M 38.28125 36.386719 C 38.679688 36.476562 39.382812 36.679688 39.84375 36.835938 C 44.765625 38.574219 47.65625 42.46875 48.09375 47.96875 L 48.164062 48.828125 L 41.601562 48.828125 L 41.601562 45.117188 C 41.601562 41.53125 41.59375 41.398438 41.40625 41.210938 C 41.164062 40.96875 40.867188 40.96875 40.625 41.210938 C 40.4375 41.398438 40.429688 41.53125 40.429688 45.117188 L 40.429688 48.828125 L 36.476562 48.828125 C 33.378906 48.828125 32.519531 48.796875 32.519531 48.703125 C 32.519531 48.59375 35.03125 36.203125 35.109375 35.976562 C 35.136719 35.867188 37.011719 36.101562 38.28125 36.386719 Z M 25.839844 41.804688 L 26.660156 42.390625 L 26.21875 43 C 25.976562 43.320312 25.78125 43.664062 25.78125 43.75 C 25.78125 43.828125 25.890625 44.921875 26.023438 46.171875 C 26.164062 47.421875 26.269531 48.535156 26.269531 48.640625 C 26.269531 48.820312 26.191406 48.828125 25 48.828125 C 23.808594 48.828125 23.730469 48.820312 23.730469 48.640625 C 23.730469 48.535156 23.835938 47.421875 23.976562 46.171875 C 24.109375 44.921875 24.21875 43.828125 24.21875 43.75 C 24.21875 43.664062 24.023438 43.320312 23.78125 42.988281 L 23.339844 42.390625 L 24.148438 41.804688 C 24.589844 41.484375 24.96875 41.21875 24.980469 41.21875 C 25 41.210938 25.390625 41.476562 25.839844 41.804688 Z M 25.839844 41.804688 "/>
</g>
</svg>
