<?xml version="1.0" encoding="UTF-8"?>
<svg xmlns="http://www.w3.org/2000/svg" xmlns:xlink="http://www.w3.org/1999/xlink" width="50px" height="50px" viewBox="0 0 50 50" version="1.1">
<g id="surface1">
<path style=" stroke:none;fill-rule:nonzero;fill:rgb(0%,0%,0%);fill-opacity:1;" d="M 23.972656 0.183594 C 23.320312 0.488281 22.851562 1.183594 22.851562 1.835938 C 22.851562 2.265625 22.667969 2.421875 21.886719 2.636719 C 20.808594 2.941406 19.675781 3.398438 19.480469 3.613281 C 19.230469 3.894531 19.246094 4.386719 19.519531 4.609375 C 19.832031 4.855469 20.089844 4.832031 20.917969 4.503906 C 21.308594 4.347656 22.003906 4.121094 22.449219 4.003906 C 23.152344 3.808594 23.339844 3.710938 23.691406 3.359375 C 24.089844 2.96875 24.316406 2.472656 24.316406 1.980469 C 24.316406 1.660156 24.582031 1.464844 25 1.464844 C 25.480469 1.464844 25.636719 1.628906 25.722656 2.207031 C 25.859375 3.214844 26.378906 3.660156 27.871094 4.089844 C 31.054688 5.011719 33.542969 7.089844 34.960938 10 C 36.796875 13.769531 36.367188 18.027344 33.816406 21.523438 C 33.339844 22.175781 33.300781 22.472656 33.644531 22.800781 C 34.140625 23.308594 34.550781 23.074219 35.378906 21.847656 C 37.628906 18.503906 38.144531 14.386719 36.808594 10.574219 C 35.761719 7.628906 33.574219 5.117188 30.792969 3.683594 C 29.941406 3.242188 28.035156 2.539062 27.695312 2.539062 C 27.433594 2.539062 27.148438 2.175781 27.148438 1.824219 C 27.148438 1.433594 26.855469 0.800781 26.550781 0.519531 C 25.976562 -0.0117188 24.746094 -0.167969 23.972656 0.183594 Z M 23.972656 0.183594 "/>
<path style=" stroke:none;fill-rule:nonzero;fill:rgb(0%,0%,0%);fill-opacity:1;" d="M 16.628906 5.449219 C 15.644531 6.300781 14.441406 7.839844 13.839844 9.050781 C 11.699219 13.28125 12.070312 18.28125 14.824219 22.160156 C 15.429688 23.007812 16.652344 24.238281 17.644531 24.980469 C 18.582031 25.691406 18.957031 26.113281 19.347656 26.925781 C 19.699219 27.65625 19.84375 28.710938 19.804688 30.175781 L 19.777344 31.199219 L 18.574219 31.25 C 17.527344 31.289062 17.34375 31.328125 17.226562 31.484375 C 17.128906 31.628906 17.089844 32.019531 17.089844 33.027344 C 17.089844 34.246094 17.109375 34.394531 17.285156 34.570312 C 17.527344 34.816406 17.980469 34.824219 18.269531 34.582031 C 18.476562 34.414062 18.503906 34.296875 18.542969 33.554688 L 18.574219 32.714844 L 31.445312 32.714844 L 31.445312 34.832031 C 31.445312 37.207031 31.40625 37.394531 30.742188 37.792969 C 30.429688 37.980469 30.234375 37.988281 25.019531 37.988281 C 19.152344 37.988281 19.296875 37.996094 18.855469 37.441406 C 18.738281 37.292969 18.605469 37.011719 18.542969 36.796875 C 18.464844 36.496094 18.371094 36.378906 18.105469 36.269531 C 17.8125 36.144531 17.734375 36.144531 17.480469 36.277344 C 17.097656 36.472656 17.019531 36.816406 17.226562 37.460938 C 17.488281 38.292969 18.371094 39.128906 19.269531 39.394531 C 19.558594 39.480469 19.492188 40.105469 19.140625 40.429688 C 18.957031 40.605469 18.847656 40.800781 18.847656 40.964844 C 18.847656 41.132812 18.957031 41.328125 19.140625 41.503906 C 19.402344 41.746094 19.433594 41.835938 19.433594 42.382812 C 19.433594 42.929688 19.402344 43.019531 19.140625 43.261719 C 18.761719 43.621094 18.761719 43.972656 19.140625 44.335938 C 19.296875 44.480469 19.433594 44.660156 19.433594 44.714844 C 19.433594 44.765625 19.519531 45.058594 19.636719 45.363281 C 19.894531 46.035156 20.613281 46.785156 21.222656 47.019531 C 21.628906 47.175781 21.660156 47.214844 21.730469 47.636719 C 21.863281 48.605469 22.34375 49.335938 23.097656 49.738281 C 23.449219 49.933594 23.632812 49.949219 25 49.949219 C 26.367188 49.949219 26.550781 49.933594 26.902344 49.738281 C 27.65625 49.335938 28.136719 48.605469 28.269531 47.636719 C 28.339844 47.214844 28.371094 47.175781 28.777344 47.019531 C 29.386719 46.785156 30.105469 46.035156 30.363281 45.363281 C 30.480469 45.058594 30.566406 44.765625 30.566406 44.714844 C 30.566406 44.660156 30.703125 44.480469 30.859375 44.335938 C 31.238281 43.972656 31.238281 43.621094 30.859375 43.261719 C 30.597656 43.019531 30.566406 42.929688 30.566406 42.382812 C 30.566406 41.835938 30.597656 41.746094 30.859375 41.503906 C 31.25 41.144531 31.238281 40.792969 30.847656 40.417969 C 30.605469 40.195312 30.558594 40.078125 30.585938 39.785156 C 30.613281 39.441406 30.652344 39.402344 31.054688 39.277344 C 31.660156 39.074219 32.527344 38.191406 32.746094 37.558594 C 32.96875 36.894531 32.988281 31.785156 32.773438 31.484375 C 32.65625 31.328125 32.472656 31.289062 31.425781 31.25 L 30.222656 31.199219 L 30.234375 29.636719 C 30.234375 28.398438 30.285156 27.949219 30.417969 27.488281 C 30.683594 26.667969 31.289062 25.820312 32.058594 25.207031 C 32.449219 24.894531 32.746094 24.582031 32.785156 24.433594 C 32.871094 24.082031 32.628906 23.699219 32.246094 23.59375 C 31.964844 23.515625 31.863281 23.542969 31.394531 23.878906 C 30.261719 24.660156 29.296875 26.003906 28.957031 27.304688 C 28.855469 27.667969 28.777344 28.515625 28.738281 29.570312 L 28.683594 31.261719 L 27.980469 31.199219 L 27.949219 26.785156 L 27.929688 22.371094 L 28.542969 22.433594 C 29.316406 22.5 29.707031 22.382812 30.644531 21.808594 C 31.40625 21.339844 31.601562 21.066406 31.445312 20.664062 C 31.347656 20.402344 30.996094 20.117188 30.761719 20.117188 C 30.683594 20.117188 30.285156 20.3125 29.882812 20.558594 C 29.082031 21.035156 28.800781 21.082031 28.269531 20.832031 L 27.929688 20.664062 L 27.929688 19.707031 C 27.929688 18.800781 27.910156 18.730469 27.675781 18.488281 C 27.480469 18.292969 27.371094 18.253906 27.121094 18.300781 C 26.601562 18.410156 26.511719 18.566406 26.484375 19.570312 L 26.445312 20.480469 L 25.820312 20.742188 C 25.039062 21.054688 24.960938 21.054688 24.167969 20.730469 L 23.535156 20.46875 L 23.535156 19.738281 C 23.535156 18.777344 23.476562 18.574219 23.136719 18.410156 C 22.753906 18.203125 22.589844 18.222656 22.316406 18.503906 C 22.089844 18.722656 22.070312 18.808594 22.070312 19.707031 L 22.070312 20.664062 L 21.730469 20.832031 C 21.199219 21.082031 20.917969 21.035156 20.117188 20.558594 C 19.714844 20.3125 19.316406 20.117188 19.238281 20.117188 C 19.003906 20.117188 18.652344 20.402344 18.554688 20.664062 C 18.398438 21.066406 18.59375 21.339844 19.355469 21.808594 C 20.292969 22.382812 20.683594 22.5 21.457031 22.433594 L 22.070312 22.371094 L 22.050781 26.785156 L 22.019531 31.199219 L 21.316406 31.261719 L 21.261719 29.570312 C 21.191406 27.667969 21.074219 27.070312 20.535156 26.054688 C 20.089844 25.195312 19.511719 24.550781 18.515625 23.800781 C 15.546875 21.5625 13.933594 18.410156 13.933594 14.792969 C 13.933594 12.941406 14.296875 11.425781 15.117188 9.816406 C 15.691406 8.660156 16.277344 7.878906 17.34375 6.816406 C 18.175781 5.988281 18.292969 5.832031 18.28125 5.546875 C 18.269531 5.167969 17.96875 4.882812 17.566406 4.882812 C 17.371094 4.882812 17.097656 5.050781 16.628906 5.449219 Z M 24.21875 22.324219 C 24.816406 22.550781 25.429688 22.488281 26.300781 22.121094 C 26.457031 22.050781 26.464844 22.304688 26.464844 26.652344 L 26.464844 31.25 L 23.535156 31.25 L 23.535156 26.652344 C 23.535156 22.304688 23.542969 22.050781 23.710938 22.121094 C 23.800781 22.160156 24.035156 22.253906 24.21875 22.324219 Z M 29.101562 39.84375 L 29.101562 40.234375 L 20.898438 40.234375 L 20.898438 39.453125 L 29.101562 39.453125 Z M 29.101562 42.382812 L 29.101562 43.066406 L 20.898438 43.066406 L 20.898438 41.699219 L 29.101562 41.699219 Z M 29.101562 44.621094 C 29.101562 44.765625 28.660156 45.339844 28.386719 45.546875 C 28.125 45.742188 28.007812 45.753906 25 45.753906 C 21.992188 45.753906 21.875 45.742188 21.613281 45.546875 C 21.339844 45.339844 20.898438 44.765625 20.898438 44.621094 C 20.898438 44.570312 22.746094 44.53125 25 44.53125 C 27.253906 44.53125 29.101562 44.570312 29.101562 44.621094 Z M 26.785156 47.578125 C 26.640625 48.378906 26.339844 48.535156 25 48.535156 C 23.660156 48.535156 23.359375 48.378906 23.214844 47.578125 L 23.152344 47.265625 L 26.855469 47.265625 Z M 26.785156 47.578125 "/>
</g>
</svg>
