<?xml version="1.0" encoding="UTF-8"?>
<svg xmlns="http://www.w3.org/2000/svg" xmlns:xlink="http://www.w3.org/1999/xlink" width="50px" height="50px" viewBox="0 0 50 50" version="1.1">
<g id="surface1">
<path style=" stroke:none;fill-rule:nonzero;fill:rgb(0%,0%,0%);fill-opacity:1;" d="M 13.4375 0.3125 C 12.617188 0.859375 9.726562 7.070312 9.960938 7.8125 C 10.195312 8.59375 11.25 8.984375 13.203125 8.984375 C 13.867188 8.984375 14.453125 9.0625 14.453125 9.179688 C 14.453125 9.296875 14.101562 10.117188 13.632812 10.976562 C 12.578125 13.046875 12.773438 14.21875 14.179688 14.375 C 15.15625 14.492188 15.351562 14.257812 16.992188 10.898438 C 19.140625 6.445312 19.023438 5.859375 15.820312 5.859375 L 13.671875 5.859375 L 14.726562 3.710938 C 15.546875 2.03125 15.703125 1.40625 15.390625 0.859375 C 14.882812 0.117188 14.0625 -0.15625 13.4375 0.3125 Z M 13.4375 0.3125 "/>
<path style=" stroke:none;fill-rule:nonzero;fill:rgb(0%,0%,0%);fill-opacity:1;" d="M 31.015625 0.3125 C 30.15625 0.898438 9.765625 30.195312 9.765625 30.859375 C 9.765625 32.460938 10.664062 32.5 15.625 31.25 C 18.242188 30.585938 20.507812 30.117188 20.585938 30.234375 C 20.703125 30.3125 19.609375 34.53125 18.164062 39.609375 C 15.976562 47.1875 15.625 48.90625 16.015625 49.414062 C 16.289062 49.726562 16.796875 50 17.1875 50 C 17.96875 50 39.882812 20.742188 40.15625 19.335938 C 40.46875 17.578125 39.53125 17.5 33.789062 18.75 C 30.820312 19.414062 28.320312 19.882812 28.242188 19.765625 C 28.164062 19.6875 29.257812 15.546875 30.703125 10.507812 C 33.320312 1.367188 33.4375 0.351562 31.992188 0.117188 C 31.679688 0.0390625 31.25 0.117188 31.015625 0.3125 Z M 26.171875 15.859375 C 24.453125 21.796875 24.296875 22.96875 25.195312 23.28125 C 25.507812 23.4375 27.851562 23.046875 30.351562 22.5 C 32.851562 21.953125 34.960938 21.5625 35.039062 21.601562 C 35.117188 21.679688 32.03125 25.976562 28.242188 31.132812 C 24.414062 36.289062 21.25 40.3125 21.210938 40.078125 C 21.132812 39.84375 21.875 36.992188 22.8125 33.789062 C 25.117188 25.898438 25.078125 25.820312 18.476562 27.5 C 16.484375 28.007812 14.84375 28.359375 14.84375 28.242188 C 14.84375 27.929688 27.460938 10.15625 27.578125 10.273438 C 27.65625 10.351562 27.03125 12.851562 26.171875 15.859375 Z M 26.171875 15.859375 "/>
<path style=" stroke:none;fill-rule:nonzero;fill:rgb(0%,0%,0%);fill-opacity:1;" d="M 32.109375 38.632812 C 29.726562 43.085938 29.960938 44.140625 33.28125 44.140625 C 34.296875 44.140625 35.15625 44.21875 35.15625 44.335938 C 35.15625 44.414062 34.6875 45.46875 34.101562 46.640625 C 33.242188 48.4375 33.164062 48.867188 33.554688 49.375 C 34.6875 50.742188 35.46875 50.117188 37.304688 46.484375 C 38.28125 44.570312 39.0625 42.695312 39.0625 42.382812 C 39.0625 41.640625 37.539062 41.015625 35.703125 41.015625 C 34.960938 41.015625 34.375 40.9375 34.375 40.820312 C 34.375 40.703125 34.804688 39.765625 35.3125 38.75 C 36.367188 36.640625 36.132812 35.546875 34.609375 35.546875 C 33.90625 35.546875 33.398438 36.171875 32.109375 38.632812 Z M 32.109375 38.632812 "/>
</g>
</svg>
