<?xml version="1.0" encoding="UTF-8"?>
<svg xmlns="http://www.w3.org/2000/svg" xmlns:xlink="http://www.w3.org/1999/xlink" width="50px" height="50px" viewBox="0 0 50 50" version="1.1">
<g id="surface1">
<path style=" stroke:none;fill-rule:nonzero;fill:rgb(0%,0%,0%);fill-opacity:1;" d="M 6.023438 4.523438 C 5.625 4.617188 5.609375 4.667969 5.816406 5.273438 C 5.949219 5.660156 5.992188 5.699219 6.734375 6.089844 L 7.507812 6.5 L 8.175781 6.066406 C 8.542969 5.832031 8.808594 5.609375 8.773438 5.574219 C 8.632812 5.441406 6.582031 4.417969 6.484375 4.425781 C 6.425781 4.433594 6.214844 4.476562 6.023438 4.523438 Z M 6.023438 4.523438 "/>
<path style=" stroke:none;fill-rule:nonzero;fill:rgb(0%,0%,0%);fill-opacity:1;" d="M 13.898438 5.660156 C 13.132812 5.910156 12.574219 6.332031 12.191406 6.964844 L 12.042969 7.226562 L 11.582031 7 C 10.726562 6.566406 10.390625 6.417969 10.324219 6.417969 C 10.285156 6.417969 9.976562 6.601562 9.625 6.824219 L 8.992188 7.242188 L 9.515625 7.523438 C 9.808594 7.691406 10.332031 7.957031 10.691406 8.132812 C 11.042969 8.308594 11.332031 8.492188 11.332031 8.550781 C 11.332031 8.601562 11.265625 8.765625 11.191406 8.925781 C 11.074219 9.132812 11.042969 9.410156 11.042969 10 C 11.042969 10.734375 11.066406 10.839844 11.316406 11.351562 C 11.660156 12.042969 12.101562 12.449219 13.082031 12.949219 L 13.816406 13.332031 L 13.875 13.765625 C 14.035156 14.933594 14.625 15.726562 15.785156 16.300781 C 16.425781 16.617188 16.449219 16.640625 16.589844 17.058594 C 16.675781 17.300781 16.875 17.699219 17.042969 17.957031 C 17.625 18.832031 17.632812 18.839844 23.542969 21.875 C 24.507812 22.367188 25.332031 22.800781 25.375 22.832031 C 25.425781 22.867188 26.183594 23.257812 27.066406 23.714844 C 27.941406 24.167969 28.667969 24.558594 28.667969 24.582031 C 28.667969 24.609375 27.691406 25.285156 26.5 26.082031 C 25.300781 26.875 24.339844 27.566406 24.359375 27.617188 C 24.382812 27.667969 24.832031 28.285156 25.367188 28.992188 C 25.898438 29.691406 26.332031 30.292969 26.332031 30.308594 C 26.332031 30.382812 24.949219 32.515625 24.734375 32.773438 L 24.515625 33.042969 L 23.734375 32.640625 C 23.035156 32.292969 22.359375 31.933594 19.839844 30.625 C 19.207031 30.292969 18.964844 30.207031 18.550781 30.183594 C 18.101562 30.160156 17.976562 30.183594 17.5 30.433594 C 16.875 30.757812 16.792969 30.875 15.648438 33.082031 C 14.117188 36.042969 14.167969 35.925781 14.167969 36.507812 C 14.167969 36.867188 14.214844 37.140625 14.339844 37.390625 C 14.675781 38.082031 14.699219 38.101562 18.457031 40.042969 C 19.148438 40.398438 20.175781 40.933594 20.75 41.234375 C 22.667969 42.226562 23.617188 42.714844 25.375 43.625 C 26.339844 44.117188 27.167969 44.550781 27.207031 44.582031 C 27.257812 44.617188 27.757812 44.882812 28.332031 45.175781 C 29.339844 45.691406 29.398438 45.707031 30 45.707031 C 31.125 45.699219 31.5 45.375 32.375 43.660156 C 32.683594 43.042969 33.199219 42.066406 33.515625 41.476562 C 34.207031 40.191406 34.375 39.640625 34.25 39.035156 C 34.117188 38.398438 33.757812 37.898438 33.214844 37.574219 C 32.957031 37.417969 32.75 37.257812 32.75 37.207031 C 32.75 37.167969 32.867188 36.898438 33.007812 36.625 C 33.949219 34.765625 35 31.542969 35.417969 29.207031 C 35.515625 28.660156 35.609375 28.199219 35.625 28.183594 C 35.640625 28.167969 35.792969 28.226562 35.976562 28.316406 C 37.515625 29.101562 39.316406 28.800781 40.542969 27.550781 C 40.941406 27.140625 41.167969 26.792969 41.699219 25.75 C 42.058594 25.042969 42.765625 23.667969 43.265625 22.707031 C 44.183594 20.964844 44.417969 20.410156 44.417969 19.984375 C 44.417969 19.859375 44.457031 19.734375 44.507812 19.699219 C 44.601562 19.648438 44.589844 19.515625 44.425781 18.707031 C 44.175781 17.449219 43.507812 16.542969 42.390625 15.933594 C 42.109375 15.785156 41.257812 15.332031 40.5 14.941406 C 38.582031 13.949219 35.066406 12.125 33.875 11.5 C 33.324219 11.214844 32.390625 10.726562 31.792969 10.417969 C 31.199219 10.109375 30.125 9.558594 29.417969 9.183594 C 24.101562 6.417969 24.101562 6.417969 23.132812 6.417969 C 22.859375 6.417969 22.398438 6.476562 22.117188 6.550781 L 21.589844 6.675781 L 20.941406 6.339844 C 20.082031 5.898438 19.5 5.785156 18.792969 5.898438 C 18.273438 5.984375 18.007812 6.082031 17.609375 6.332031 C 17.441406 6.441406 17.359375 6.417969 16.648438 6.066406 C 15.464844 5.476562 14.800781 5.375 13.898438 5.660156 Z M 15.640625 7.132812 C 15.910156 7.25 16.207031 7.398438 16.316406 7.464844 C 16.492188 7.582031 16.492188 7.601562 16.375 7.832031 C 16.300781 7.976562 16.226562 8.082031 16.199219 8.082031 C 16.125 8.082031 14.882812 7.476562 14.832031 7.417969 C 14.808594 7.382812 14.667969 7.316406 14.523438 7.257812 C 14.074219 7.074219 14.191406 6.933594 14.808594 6.925781 C 15.015625 6.917969 15.359375 7 15.640625 7.132812 Z M 19.757812 7.332031 C 20.25 7.476562 20.308594 7.609375 20.007812 7.976562 C 19.875 8.148438 19.515625 8.757812 19.226562 9.332031 C 18.925781 9.910156 18.234375 11.257812 17.675781 12.332031 C 17.109375 13.410156 16.609375 14.449219 16.558594 14.640625 C 16.507812 14.839844 16.425781 15 16.367188 15 C 16.316406 15 16.125 14.890625 15.941406 14.757812 C 15.507812 14.441406 15.292969 14 15.300781 13.417969 C 15.300781 13 15.382812 12.800781 16.25 11.125 C 16.773438 10.117188 17.324219 9.042969 17.476562 8.726562 C 18.066406 7.5 18.792969 7.066406 19.757812 7.332031 Z M 25.832031 8.917969 C 28 10.042969 29.449219 10.800781 31.207031 11.707031 C 31.851562 12.042969 32.839844 12.558594 33.417969 12.851562 C 33.992188 13.148438 35.058594 13.707031 35.792969 14.082031 C 38.109375 15.285156 41.382812 16.984375 41.714844 17.167969 C 42.183594 17.425781 42.632812 17.890625 42.851562 18.324219 C 42.992188 18.617188 43.035156 18.867188 43.035156 19.375 C 43.042969 20.140625 43.125 19.949219 41.582031 22.875 C 41.035156 23.925781 40.433594 25.089844 40.257812 25.457031 C 39.824219 26.332031 39.441406 26.765625 38.816406 27.074219 C 38.390625 27.292969 38.207031 27.332031 37.734375 27.332031 C 37.167969 27.332031 37.140625 27.324219 35.308594 26.382812 C 32.714844 25.058594 31.167969 24.25 26.957031 22.058594 C 24.734375 20.898438 23.441406 20.234375 21.476562 19.214844 C 19.117188 18.007812 18.675781 17.75 18.375 17.390625 C 17.859375 16.785156 17.648438 15.667969 17.933594 14.957031 C 18.015625 14.75 19.125 12.582031 20.632812 9.691406 C 21.101562 8.792969 21.257812 8.574219 21.660156 8.300781 C 22.191406 7.925781 22.558594 7.824219 23.25 7.859375 C 23.867188 7.890625 23.910156 7.910156 25.832031 8.917969 Z M 14.332031 8.75 C 14.976562 9.074219 15.5 9.367188 15.5 9.417969 C 15.5 9.457031 15.433594 9.625 15.359375 9.792969 C 15.207031 10.101562 15.058594 10.148438 14.792969 9.964844 C 14.699219 9.910156 14.234375 9.660156 13.75 9.417969 C 13.265625 9.167969 12.859375 8.957031 12.839844 8.949219 C 12.808594 8.925781 13.089844 8.167969 13.132812 8.167969 C 13.160156 8.167969 13.691406 8.433594 14.332031 8.75 Z M 13.476562 10.839844 C 14.535156 11.398438 14.558594 11.425781 14.375 11.699219 C 14.292969 11.816406 14.207031 11.917969 14.175781 11.917969 C 14.140625 11.917969 13.867188 11.785156 13.558594 11.617188 C 13.035156 11.339844 12.742188 11.058594 12.507812 10.601562 C 12.359375 10.316406 12.550781 10.359375 13.476562 10.839844 Z M 32.75 26.648438 C 34.148438 27.367188 34.207031 27.417969 34.234375 27.667969 C 34.273438 28.074219 34.148438 28.132812 33.726562 27.882812 C 33.433594 27.707031 33.242188 27.667969 32.800781 27.660156 C 32.324219 27.648438 32.183594 27.683594 31.851562 27.890625 C 31.132812 28.332031 30.734375 29.191406 30.910156 29.933594 C 30.976562 30.207031 30.957031 30.25 30.75 30.398438 C 30.433594 30.632812 30.082031 31.367188 30.082031 31.785156 C 30.082031 32.714844 30.457031 33.191406 31.660156 33.824219 C 32.125 34.066406 32.5 34.285156 32.5 34.316406 C 32.5 34.457031 31.464844 36.582031 31.398438 36.582031 C 31.359375 36.582031 30.714844 36.265625 29.976562 35.882812 C 29.234375 35.5 28.023438 34.875 27.292969 34.5 C 26.558594 34.125 25.925781 33.785156 25.890625 33.75 C 25.851562 33.714844 26.066406 33.324219 26.375 32.890625 C 27.035156 31.925781 27.867188 30.507812 28.417969 29.375 C 28.792969 28.589844 29.582031 26.800781 29.582031 26.714844 C 29.582031 26.691406 29.699219 26.359375 29.832031 25.976562 L 30.089844 25.273438 L 30.691406 25.589844 C 31.023438 25.757812 31.949219 26.242188 32.75 26.648438 Z M 27.574219 27.851562 C 27.351562 28.367188 27.167969 28.792969 27.167969 28.808594 C 27.167969 28.824219 27.132812 28.832031 27.082031 28.832031 C 27 28.832031 26.292969 27.933594 26.339844 27.882812 C 26.601562 27.667969 27.882812 26.859375 27.925781 26.882812 C 27.964844 26.898438 27.808594 27.339844 27.574219 27.851562 Z M 33.390625 29.292969 C 33.675781 29.457031 33.917969 29.617188 33.917969 29.648438 C 33.917969 29.707031 33.765625 30.292969 33.707031 30.484375 C 33.675781 30.558594 33.507812 30.507812 33.109375 30.285156 C 32.535156 29.976562 32.25 29.734375 32.25 29.542969 C 32.25 29.410156 32.632812 29 32.757812 29 C 32.816406 29 33.101562 29.132812 33.390625 29.292969 Z M 32.773438 31.691406 C 33.234375 31.933594 33.265625 31.964844 33.226562 32.199219 C 33.199219 32.339844 33.140625 32.558594 33.089844 32.683594 L 33.007812 32.910156 L 32.609375 32.726562 C 31.992188 32.441406 31.582031 32.183594 31.535156 32.042969 C 31.449219 31.832031 31.574219 31.5 31.773438 31.417969 C 32.007812 31.324219 32.167969 31.375 32.773438 31.691406 Z M 18.992188 31.757812 C 19.140625 31.851562 19.917969 32.257812 20.699219 32.660156 C 21.484375 33.066406 22.574219 33.625 23.125 33.917969 C 23.675781 34.199219 24.574219 34.667969 25.125 34.957031 C 25.675781 35.242188 26.667969 35.757812 27.332031 36.101562 C 28 36.449219 29.066406 37 29.707031 37.332031 C 30.351562 37.667969 31.234375 38.125 31.667969 38.351562 C 33.125 39.101562 33.125 39.101562 32.332031 40.683594 C 32 41.339844 31.699219 41.917969 31.660156 41.964844 C 31.601562 42.035156 31.300781 41.917969 30.601562 41.542969 C 29.589844 41.007812 28.074219 40.214844 25.832031 39.066406 C 25.125 38.699219 24.359375 38.292969 24.125 38.167969 C 23.898438 38.042969 22.882812 37.515625 21.875 37 C 20.867188 36.484375 19.699219 35.875 19.273438 35.660156 C 18.851562 35.433594 18.089844 35.042969 17.582031 34.785156 C 17.082031 34.535156 16.667969 34.292969 16.667969 34.25 C 16.667969 34.125 17.816406 31.957031 17.992188 31.765625 C 18.199219 31.535156 18.609375 31.523438 18.992188 31.757812 Z M 17.308594 36.226562 C 17.992188 36.574219 19.140625 37.183594 19.875 37.558594 C 20.609375 37.941406 21.433594 38.367188 21.707031 38.507812 C 21.984375 38.648438 22.566406 38.949219 23 39.175781 C 23.433594 39.410156 24.542969 39.984375 25.457031 40.449219 C 26.375 40.925781 27.617188 41.566406 28.207031 41.875 C 28.808594 42.191406 29.660156 42.625 30.109375 42.851562 C 30.550781 43.082031 30.917969 43.300781 30.917969 43.339844 C 30.917969 43.515625 30.574219 44.074219 30.398438 44.199219 C 30.300781 44.273438 30.125 44.332031 30.007812 44.332031 C 29.839844 44.332031 27.824219 43.382812 27.542969 43.167969 C 27.5 43.132812 26.691406 42.707031 25.75 42.226562 C 24.808594 41.75 23.558594 41.101562 22.957031 40.792969 C 22.367188 40.484375 21.390625 39.976562 20.792969 39.667969 C 15.125 36.742188 15.582031 37.015625 15.582031 36.492188 C 15.582031 36.214844 15.875 35.582031 16 35.582031 C 16.042969 35.582031 16.632812 35.875 17.308594 36.226562 Z M 17.308594 36.226562 "/>
<path style=" stroke:none;fill-rule:nonzero;fill:rgb(0%,0%,0%);fill-opacity:1;" d="M 22.375 9.351562 C 21.839844 9.660156 21.890625 10.398438 22.457031 10.582031 C 22.949219 10.75 23.367188 10.449219 23.367188 9.941406 C 23.367188 9.425781 22.816406 9.101562 22.375 9.351562 Z M 22.375 9.351562 "/>
<path style=" stroke:none;fill-rule:nonzero;fill:rgb(0%,0%,0%);fill-opacity:1;" d="M 31.816406 14.851562 C 31.566406 14.933594 31.433594 15.175781 29.875 18.191406 C 28.933594 20.015625 28.910156 20.117188 29.25 20.484375 C 29.390625 20.632812 29.507812 20.667969 29.773438 20.648438 C 30.207031 20.617188 30.25 20.558594 31.5 18.125 C 32.023438 17.117188 32.515625 16.175781 32.601562 16.042969 C 33.007812 15.367188 32.507812 14.601562 31.816406 14.851562 Z M 31.816406 14.851562 "/>
<path style=" stroke:none;fill-rule:nonzero;fill:rgb(0%,0%,0%);fill-opacity:1;" d="M 34.066406 16.226562 C 33.910156 16.417969 33.558594 17.066406 32.5 19.125 C 32.023438 20.042969 31.609375 20.824219 31.574219 20.867188 C 31.535156 20.917969 31.5 21.082031 31.5 21.25 C 31.5 21.648438 31.773438 21.917969 32.175781 21.917969 C 32.660156 21.917969 32.574219 22.058594 34.375 18.558594 C 35.308594 16.734375 35.339844 16.632812 35 16.265625 C 34.785156 16.035156 34.25 16.015625 34.066406 16.226562 Z M 34.066406 16.226562 "/>
<path style=" stroke:none;fill-rule:nonzero;fill:rgb(0%,0%,0%);fill-opacity:1;" d="M 36.566406 17.433594 C 36.417969 17.558594 36.175781 17.984375 35.25 19.792969 C 34.875 20.523438 34.417969 21.390625 34.242188 21.714844 C 33.851562 22.433594 33.832031 22.683594 34.160156 23.007812 C 34.632812 23.484375 34.992188 23.300781 35.523438 22.316406 C 36.550781 20.425781 37.667969 18.160156 37.667969 17.976562 C 37.667969 17.667969 37.308594 17.332031 36.976562 17.332031 C 36.824219 17.332031 36.640625 17.382812 36.566406 17.433594 Z M 36.566406 17.433594 "/>
<path style=" stroke:none;fill-rule:nonzero;fill:rgb(0%,0%,0%);fill-opacity:1;" d="M 38.941406 18.808594 C 38.824219 18.941406 38.476562 19.550781 38.148438 20.167969 C 37.832031 20.785156 37.308594 21.792969 36.992188 22.398438 C 36.324219 23.675781 36.265625 24.035156 36.632812 24.324219 C 36.910156 24.542969 37.257812 24.550781 37.484375 24.351562 C 37.574219 24.273438 38.226562 23.109375 38.917969 21.757812 L 40.191406 19.316406 L 40.050781 19.035156 C 39.824219 18.550781 39.273438 18.441406 38.941406 18.808594 Z M 38.941406 18.808594 "/>
</g>
</svg>
